<svg width="394" height="103" viewBox="0 0 394 103" fill="none" xmlns="http://www.w3.org/2000/svg">
  <path d="M29.336 0.903996C30.36 0.903996 31.288 1.896 32.12 3.88C32.12 5.416 29.784 6.696 25.112 7.72C19.224 10.984 14.648 16.68 11.384 24.808C8.184 32.936 6.584 40.968 6.584 48.904C6.584 61.64 10.68 69.832 18.872 73.48L21.944 74.056C28.792 74.056 33.656 68.072 36.536 56.104L36.92 52.168C36.92 47.048 35.192 42.76 31.736 39.304H31.16C29.816 40.84 27.128 46.248 23.096 55.528L20.984 56.968C19.192 56.968 18.168 55.88 17.912 53.704C23.992 39.304 28.12 32.104 30.296 32.104H30.872C38.68 36.648 42.584 43.336 42.584 52.168C42.584 62.152 38.488 70.472 30.296 77.128C28.952 78.28 26.232 79.144 22.136 79.72C14.392 79.72 7.992 74.12 2.936 62.92C1.592 58.12 0.92 53.736 0.92 49.768V48.328C0.92 34.632 5.304 21.704 14.072 9.544C19.768 3.784 24.856 0.903996 29.336 0.903996ZM55.589 38.536C58.149 38.6 62.469 43.08 68.549 51.976L68.741 53.608C68.741 55.4 64.357 56.776 55.589 57.736L55.301 58.024V58.408C56.645 64.168 58.053 67.048 59.525 67.048H60.677C62.725 67.048 65.829 64.84 69.989 60.424H70.565C71.845 60.424 72.837 61.352 73.541 63.208C73.541 64.744 70.853 67.4 65.477 71.176C64.069 72.008 62.373 72.616 60.389 73C55.205 73 51.589 68.136 49.541 58.408C46.597 57.96 45.125 56.744 45.125 54.76C45.125 53.352 46.213 52.424 48.389 51.976V52.36L49.349 51.976V49.576C49.349 42.216 51.429 38.536 55.589 38.536ZM56.165 45.448H55.301L54.917 49V51.976H55.301C58.885 51.848 60.677 51.464 60.677 50.824C59.013 48.328 57.509 46.536 56.165 45.448ZM88.5583 14.728C90.3503 15.112 91.2463 16.008 91.2463 17.416L90.6703 21.64V22.888C90.6703 25.704 90.9903 28.68 91.6303 31.816H91.8223C99.2463 29.576 103.854 28.456 105.646 28.456C107.502 28.968 108.43 29.896 108.43 31.24C108.43 33.416 106.222 34.504 101.806 34.504L91.8223 38.056C91.8223 46.696 92.7503 58.44 94.6063 73.288C94.2223 75.016 93.2943 75.88 91.8223 75.88H91.6303C89.3903 75.88 88.2703 73 88.2703 67.24C87.4383 62.952 86.7343 53.64 86.1583 39.304H84.4303C78.4143 38.92 75.4062 37.512 75.4062 35.08C75.4062 34.376 76.0783 33.512 77.4223 32.488H78.3823L82.7983 33.64H85.8703L85.0063 21.64C85.0063 17.032 86.1903 14.728 88.5583 14.728Z" fill="#657CA8"/>
  <path d="M120.571 16.936C129.595 16.936 138.299 21.736 146.683 31.336C149.243 36.392 150.523 41.288 150.523 46.024C150.523 57.16 144.859 65.352 133.531 70.6C129.883 72.2 125.947 73 121.723 73H119.323C116.955 72.936 115.771 71.944 115.771 70.024H115.483C115.483 68.296 116.571 67.4 118.747 67.336H120.955V66.76H121.147C117.179 49.928 115.195 37.416 115.195 29.224H114.907L112.507 30.76C110.843 30.76 109.851 29.64 109.531 27.4C109.531 23.88 111.515 20.808 115.483 18.184C117.083 17.352 118.779 16.936 120.571 16.936ZM121.723 22.6H120.955V27.208C120.955 37.704 122.939 50.888 126.907 66.76H127.195C139.035 63.56 144.955 56.648 144.955 46.024C144.955 34.632 138.331 27.016 125.083 23.176C124.315 22.792 123.195 22.6 121.723 22.6ZM169.653 36.808C174.389 36.808 177.973 40.328 180.405 47.368L180.789 49.384C180.789 56.232 177.589 63.24 171.189 70.408C168.629 72.776 166.037 73.96 163.413 73.96C159.573 73.96 156.853 71.752 155.253 67.336C154.677 65.288 154.389 63.496 154.389 61.96V60.808C154.389 50.696 158.069 43.016 165.429 37.768C166.709 37.128 168.117 36.808 169.653 36.808ZM160.053 61.768C160.053 66.12 161.173 68.296 163.413 68.296C168.085 68.296 171.957 62.312 175.029 50.344V48.52C173.941 44.552 171.925 42.568 168.981 42.568C167.829 42.568 167.253 43.368 167.253 44.968C167.253 46.056 165.973 46.92 163.413 47.56C161.173 51.336 160.053 56.072 160.053 61.768ZM186.579 39.4C187.027 37.8 188.051 37 189.651 37C191.251 37 192.307 38.6 192.819 41.8H193.203L197.619 40.84C199.667 40.84 201.651 42.76 203.571 46.6H203.955C206.771 42.184 209.651 39.976 212.595 39.976C218.867 41.128 222.003 45.224 222.003 52.264L222.195 55.624L221.331 75.016V76.84C221.331 78.44 220.339 79.368 218.355 79.624C216.371 79.624 215.379 77.288 215.379 72.616L216.531 55.24C216.531 48.84 215.027 45.64 212.019 45.64C210.291 45.64 208.211 49.832 205.779 58.216C204.563 67.816 203.571 72.616 202.803 72.616C201.715 72.616 201.171 72.84 201.171 73.288C199.187 73.032 198.195 72.008 198.195 70.216L199.443 58.6C199.251 50.6 198.451 46.6 197.043 46.6H196.755C195.155 47.816 194.355 50.216 194.355 53.8V58.888L193.971 73.576C193.523 75.176 192.531 75.976 190.995 75.976C189.651 75.976 188.787 74.856 188.403 72.616L188.019 61.288L188.595 51.976C188.211 47.176 187.539 42.984 186.579 39.4ZM245.464 35.944C248.28 35.944 249.688 37.064 249.688 39.304L248.824 41.128L248.248 58.696C248.248 66.632 249.848 71.56 253.048 73.48L253.24 74.92C253.048 76.776 252.184 77.704 250.648 77.704H250.072C245.272 74.44 242.872 69.448 242.872 62.728H242.2C239.64 69.896 236.536 73.48 232.888 73.48C229.496 72.52 227.8 69.992 227.8 65.896C227.8 56.872 231.416 47.88 238.648 38.92C241.08 36.936 243.352 35.944 245.464 35.944ZM233.848 62.056L233.464 64.744V66.568H234.424C239.224 54.6 241.624 47.304 241.624 44.68H241.24C237.528 48.84 235.064 54.632 233.848 62.056ZM256.695 22.984C259.127 23.496 260.343 24.584 260.343 26.248C259.703 28.04 258.679 28.936 257.271 28.936C254.903 28.488 253.719 27.304 253.719 25.384C254.359 23.784 255.351 22.984 256.695 22.984ZM260.343 36.424C261.367 36.424 262.231 37.352 262.935 39.208L262.071 46.024V50.536C262.071 55.784 262.967 62.664 264.759 71.176C264.119 72.392 263.031 73 261.495 73C258.871 73 257.143 65.32 256.311 49.96V46.6C256.311 39.816 257.655 36.424 260.343 36.424ZM282.179 40.648C287.619 41.096 290.339 43.752 290.339 48.616L290.531 49.864L290.339 64.84C290.339 66.568 291.331 68.904 293.315 71.848V72.04C292.803 73.896 291.875 74.824 290.531 74.824C286.563 73.16 284.579 69.64 284.579 64.264V63.016L284.291 62.824L284.579 62.44V62.248L284.867 49C284.867 47.144 284.067 46.216 282.467 46.216H281.315C278.115 47.496 276.515 54.504 276.515 67.24C276.515 71.656 275.395 73.864 273.155 73.864C271.427 73.864 270.531 72.776 270.467 70.6V61C270.467 48.584 271.555 42.376 273.731 42.376L274.691 42.088L276.707 42.376C278.435 41.224 280.259 40.648 282.179 40.648Z" fill="#8FB8AC"/>
  <path d="M316.292 15.976L318.692 15.208C320.868 15.208 321.956 18.088 321.956 23.848L324.932 46.024L325.316 46.408L336.356 42.376C337.828 42.376 338.628 43.496 338.756 45.736C338.756 47.4 334.692 49.416 326.564 51.784L326.18 51.976V52.36C326.18 53.704 328.292 60.712 332.516 73.384V73.576C332.516 74.792 331.524 75.816 329.54 76.648C327.684 76.648 326.468 74.44 325.892 70.024C324.42 66.824 322.628 61.544 320.516 54.184H320.132C311.748 55.912 307.556 57.384 307.556 58.6C302.948 68.584 299.46 73.576 297.092 73.576C295.748 73.576 294.948 72.712 294.692 70.984C294.692 69.448 296.388 66.44 299.78 61.96L301.316 58.6H298.916L297.092 58.984C294.724 58.408 293.54 57.192 293.54 55.336C294.5 53.096 295.908 51.976 297.764 51.976L300.164 52.936C303.748 52.936 305.54 51.624 305.54 49C308.804 41.32 312.388 30.312 316.292 15.976ZM317.156 33.448L311.492 50.536C316.74 49.512 319.364 48.52 319.364 47.56C318.404 38.152 317.668 33.448 317.156 33.448ZM353.413 44.488C360.197 44.488 364.197 48.744 365.413 57.256C365.413 64.808 361.893 70.216 354.853 73.48C354.085 73.864 353.029 74.056 351.685 74.056H351.013L348.901 73.864V74.056L349.285 99.688C348.837 101.672 347.813 102.664 346.213 102.664C344.421 102.088 343.525 101.16 343.525 99.88L342.661 47.656C342.661 45.992 343.653 45.128 345.637 45.064L347.653 45.928C349.445 44.968 351.365 44.488 353.413 44.488ZM348.613 54.664L348.325 57.64L348.613 67.816L351.301 68.488C355.589 68.488 358.373 65.352 359.653 59.08V57.64C359.205 52.584 357.413 50.056 354.277 50.056H352.837C350.021 50.056 348.613 51.592 348.613 54.664ZM381.726 44.488C388.51 44.488 392.51 48.744 393.726 57.256C393.726 64.808 390.206 70.216 383.166 73.48C382.398 73.864 381.342 74.056 379.998 74.056H379.326L377.214 73.864V74.056L377.598 99.688C377.15 101.672 376.126 102.664 374.526 102.664C372.734 102.088 371.838 101.16 371.838 99.88L370.974 47.656C370.974 45.992 371.966 45.128 373.95 45.064L375.966 45.928C377.758 44.968 379.678 44.488 381.726 44.488ZM376.926 54.664L376.638 57.64L376.926 67.816L379.614 68.488C383.902 68.488 386.686 65.352 387.966 59.08V57.64C387.518 52.584 385.726 50.056 382.59 50.056H381.15C378.334 50.056 376.926 51.592 376.926 54.664Z" fill="#CA85A4"/>
</svg>
